<mxfile host="app.diagrams.net" modified="2023-10-04T15:24:03.693Z" agent="Mozilla/5.0 (X11; Linux x86_64; rv:102.0) Gecko/20100101 Firefox/102.0" version="21.8.2" etag="D6RGy1HgDjIsainQQqml" type="github">
  <diagram name="PÃ¡gina-1" id="uAE7e1SUV2As11e1y4PW">
    <mxGraphModel>
      <root>
        <mxCell id="0" />
        <mxCell id="1" parent="0" />
      </root>
    </mxGraphModel>
  </diagram>
</mxfile>
